<svg xmlns="http://www.w3.org/2000/svg" width="20" height="19" viewBox="0 0 20 19">
    <path fill="#777B9C" fill-rule="nonzero" d="M14.5 0C11.605 0 10 2.09 10 2.09S8.395 0 5.5 0A5.5 5.5 0 0 0 0 5.5c0 4.171 4.912 8.213 6.281 9.49C7.858 16.46 10 18.35 10 18.35s2.142-1.89 3.719-3.36C15.088 13.713 20 9.671 20 5.5A5.5 5.5 0 0 0 14.5 0zm-1.689 13.11c-.177.16-.331.299-.456.416-.751.7-1.639 1.503-2.355 2.145a175.713 175.713 0 0 1-2.355-2.145c-.126-.117-.28-.257-.456-.416C5.769 11.827 2 8.419 2 5.5 2 3.57 3.57 2 5.5 2c1.827 0 2.886 1.275 2.914 1.308L10 5l1.586-1.692C11.596 3.295 12.673 2 14.5 2 16.43 2 18 3.57 18 5.5c0 2.919-3.769 6.327-5.189 7.61z"/>
</svg>
